<?xml version="1.0" encoding="utf-8"?>
<!-- Generator: Adobe Illustrator 16.0.0, SVG Export Plug-In . SVG Version: 6.00 Build 0)  -->
<!DOCTYPE svg PUBLIC "-//W3C//DTD SVG 1.1//EN" "http://www.w3.org/Graphics/SVG/1.1/DTD/svg11.dtd">
<svg version="1.1" id="Layer_1" xmlns="http://www.w3.org/2000/svg" xmlns:xlink="http://www.w3.org/1999/xlink" x="0px" y="0px"
	 width="600px" height="105.1px" viewBox="0 0 600 105.1" enable-background="new 0 0 600 105.1" xml:space="preserve">
<path fill="#4E2A84" d="M148.053,80.626c-2.267,0-3.226-1.047-3.226-3.924v-7.586h5.144v-1.134h-5.144v-5.057h-1.308v5.057h-3.923
	v1.134h3.923v7.586c0,3.574,1.308,5.145,4.36,5.145c0.785,0,1.656-0.088,2.703-0.35l-0.174-1.133
	C149.535,80.451,148.664,80.626,148.053,80.626z"/>
<path fill="#4E2A84" d="M161.132,67.46c-2.18,0-4.098,0.872-5.406,2.267v-9.329h-1.308v20.926h1.308v-9.939
	c1.134-1.744,3.139-2.79,5.231-2.79c2.703,0,4.447,1.743,4.447,4.795v7.848h1.308v-7.848C166.799,69.64,164.445,67.46,161.132,67.46
	z"/>
<path fill="#4E2A84" d="M177.698,67.46c-4.098,0-6.975,3.139-6.975,7.149s2.877,7.149,6.975,7.149c2.877,0,5.231-1.395,6.016-3.574
	h-1.395c-0.697,1.482-2.354,2.441-4.447,2.441c-3.226,0-5.406-2.441-5.667-5.493h11.945l0,0h0.174c0-0.088,0-0.175,0-0.35
	C184.15,70.512,181.622,67.46,177.698,67.46z M172.118,74.086c0.261-3.052,2.354-5.405,5.58-5.405c3.052,0,4.97,2.267,5.231,5.405
	H172.118z"/>
<path fill="#4E2A84" d="M193.306,38.599c0,2.529,2.18,4.185,5.406,4.185c2.18,0,4.098-0.784,5.493-1.917v1.481h1.308V34.85
	c0-3.923-1.918-6.19-5.667-6.19c-2.877,0-5.319,1.395-5.667,3.835h1.395c0.349-1.656,2.093-2.702,4.36-2.702
	c3.226,0,4.359,1.918,4.359,4.97h-6.103C195.049,34.763,193.306,36.333,193.306,38.599z M204.292,39.385
	c-1.482,1.395-3.313,2.092-5.319,2.092c-2.528,0-4.272-1.22-4.272-3.052c0-1.395,1.046-2.703,3.488-2.703h6.103V39.385
	L204.292,39.385z"/>
<path fill="#4E2A84" d="M211.441,37.641c0,3.574,1.308,5.144,4.36,5.144c0.785,0,1.657-0.087,2.703-0.348l-0.261-1.133
	c-0.785,0.174-1.656,0.261-2.267,0.261c-2.267,0-3.226-1.046-3.226-3.923v-7.586h5.145v-1.133h-5.145v-5.057h-1.308v5.057h-3.923
	v1.133h3.923V37.641L211.441,37.641z"/>
<path fill="#4E2A84" d="M210.831,79.579v-0.872l-6.191-7.411v0.872l-8.283-10.027v-0.872L150.756,6.775l-0.872,0.697l9.94,11.858
	c0.174-0.087,0.349-0.087,0.436-0.174l4.969,5.929c-0.174,0-0.349,0.088-0.61,0.175l6.452,7.672c0.261,0.088,0.61,0.175,0.872,0.175
	l9.155,10.899c0,0.174-0.087,0.436-0.087,0.697l44.729,53.623l0.872-0.697l-9.33-11.16h-0.697L210.831,79.579z"/>
<path fill="#4E2A84" d="M61.908,18.895H48.132v34.44h13.776c10.812,0,18.572-7.063,18.572-17.352
	C80.48,25.87,72.807,18.895,61.908,18.895z M61.908,45.575h-5.231V26.567h5.231c5.581,0,9.853,4.098,9.853,9.417
	C71.848,41.39,67.576,45.575,61.908,45.575z"/>
<polygon fill="#4E2A84" points="85.188,53.247 111.084,53.247 111.084,45.749 93.733,45.749 93.733,39.907 108.991,39.907 
	108.991,32.584 93.733,32.584 93.733,26.306 111.084,26.306 111.084,18.895 85.188,18.895 "/>
<path fill="#4E2A84" d="M128.261,18.72l-14.648,34.527h9.155l2.267-5.929h14.561l2.267,5.929h9.155l-14.561-34.702h-8.196V18.72z
	 M127.737,40.082l4.447-11.421l4.447,11.421H127.737z"/>
<path fill="#4E2A84" d="M172.118,33.194c-0.262-0.087-0.61-0.174-0.872-0.174c-0.087,0-0.087,0-0.174-0.088l-4.883-1.133
	c-2.79-0.61-4.185-1.395-4.185-3.401c0-1.656,1.046-2.702,2.79-3.225c0.174-0.088,0.349-0.088,0.61-0.175l-4.97-5.929
	c-0.174,0.087-0.349,0.087-0.436,0.174c-4.272,1.744-6.975,5.231-6.975,10.027c0,5.406,3.139,8.545,10.027,10.027l5.667,1.221
	c2.965,0.61,3.575,1.831,3.575,3.052c0,1.918-1.832,3.139-4.883,3.139c-4.098,0-6.626-2.005-7.237-5.057h-8.544
	c0.785,8.458,7.76,12.294,15.52,12.294c7.76,0,12.904-3.401,13.951-9.155c0-0.174,0.087-0.436,0.087-0.698L172.118,33.194z"/>
<polygon fill="#4E2A84" points="33.31,39.733 41.854,49.847 41.854,18.895 33.31,18.895 "/>
<polygon fill="#4E2A84" points="244.748,60.658 255.386,60.658 255.386,86.642 263.669,86.642 263.669,60.658 274.306,60.658 
	274.306,53.247 244.748,53.247 "/>
<polygon fill="#4E2A84" points="277.532,86.642 302.817,86.642 302.817,79.492 285.815,79.492 285.815,73.651 300.725,73.651 
	300.725,66.5 285.815,66.5 285.815,60.485 302.817,60.485 302.817,53.247 277.532,53.247 "/>
<path fill="#4E2A84" d="M336.561,65.018c0-7.236-5.493-11.683-13.863-11.683h-14.475v33.394h8.283v-9.766h6.278l6.365,9.679h9.679
	l-7.936-11.684C334.469,72.865,336.561,69.378,336.561,65.018z M322.523,69.465h-6.191v-8.894h6.191
	c3.226,0,5.667,1.744,5.667,4.359C328.277,67.722,325.836,69.465,322.523,69.465z"/>
<path fill="#4E2A84" d="M359.404,66.937l-4.62-1.047c-2.704-0.609-4.012-1.308-4.012-3.313c0-2.18,1.918-3.4,4.883-3.4
	c3.488,0,5.058,2.005,5.493,4.446h8.37c-0.872-8.98-8.806-11.16-14.299-11.16c-7.935,0-13.253,4.185-13.253,10.899
	c0,5.318,3.139,8.283,9.678,9.678l5.493,1.133c2.878,0.61,3.488,1.832,3.488,2.965c0,1.919-1.832,3.052-4.796,3.052
	c-3.924,0-6.452-1.918-6.976-4.882h-8.457c0.784,8.283,7.498,11.857,14.997,11.857c8.37,0,13.862-4.186,13.862-10.813
	C369.432,70.686,365.421,68.244,359.404,66.937z"/>
<polygon fill="#4E2A84" points="374.663,86.642 399.948,86.642 399.948,79.492 382.946,79.492 382.946,73.651 397.769,73.651 
	397.769,66.5 382.946,66.5 382.946,60.485 399.948,60.485 399.948,53.247 374.663,53.247 "/>
<path fill="#4E2A84" d="M420.874,60.311c4.36,0,7.325,2.527,8.283,6.714h8.545c-1.046-8.633-7.673-14.562-16.741-14.562
	c-10.113,0-17.699,7.323-17.699,17.438c0,10.113,7.586,17.438,17.699,17.438c9.068,0,15.695-5.93,16.741-14.562h-8.545
	c-0.871,4.185-3.836,6.714-8.283,6.714c-5.405,0-9.241-4.098-9.241-9.591S415.469,60.311,420.874,60.311z"/>
<polygon fill="#4E2A84" points="439.707,60.658 450.433,60.658 450.433,86.642 458.716,86.642 458.716,60.658 469.353,60.658 
	469.353,53.247 439.707,53.247 "/>
<rect x="472.579" y="53.247" fill="#4E2A84" width="8.283" height="33.395"/>
<path fill="#4E2A84" d="M503.271,52.55c-10.114,0-17.7,7.673-17.7,17.438s7.586,17.438,17.7,17.438
	c10.113,0,17.699-7.673,17.699-17.438S513.384,52.55,503.271,52.55z M503.271,79.667c-5.406,0-9.33-4.359-9.33-9.679
	c0-5.318,3.924-9.678,9.33-9.678s9.329,4.359,9.329,9.678C512.6,75.308,508.677,79.667,503.271,79.667z"/>
<polygon fill="#4E2A84" points="204.64,72.256 204.64,71.384 204.64,53.247 196.357,53.247 196.357,61.357 196.357,62.229 "/>
<polygon fill="#4E2A84" points="233.239,72.081 217.108,53.247 210.831,53.247 210.831,78.795 210.831,79.579 216.586,86.642 
	217.37,86.642 219.114,86.642 219.114,68.332 235.07,86.642 241.435,86.642 241.435,53.247 233.239,53.247 "/>
<polygon fill="#4E2A84" points="548.174,57.171 548.174,72.081 532.13,53.247 525.766,53.247 525.766,86.642 534.136,86.642 
	534.136,68.332 550.092,86.642 556.457,86.642 556.457,67.112 "/>
</svg>
